<svg preserveAspectRatio="none" width="100%" height="100%" overflow="visible" style="display: block;" viewBox="0 0 149.369 150" fill="none" xmlns="http://www.w3.org/2000/svg">
<g id="avanz-logo-whitebn.svg" clip-path="url(#clip0_0_4)">
<path id="Vector" opacity="0.6" d="M146.018 58.1152C145.684 57.0955 145.235 56.0888 144.623 55.1127C144.623 55.1127 130.582 23.8641 41.8157 1.89278C40.4865 1.5616 14.6978 -3.74167 9.96173 5.01286C9.96173 5.01286 3.84356 12.4862 32.7486 34.6492C32.8498 34.6405 32.9114 34.6319 32.9114 34.6319C115.828 30.3046 141.986 53.8489 146.018 58.1152Z" fill="var(--fill-0, white)"/>
<path id="Vector_2" opacity="0.6" d="M69.8739 87.9581C68.9647 92.0175 67.1682 97.0037 63.8081 102.801C63.8081 102.801 47.7755 129.533 66.0701 127.942C66.0701 127.942 76.9325 126.605 81.312 123.45C86.7015 97.5385 70.9062 88.5196 69.8739 87.9581Z" fill="var(--fill-0, white)"/>
<path id="Vector_3" opacity="0.3" d="M146.417 58.7827C146.417 58.7827 146.227 58.544 145.826 58.1152C154.19 83.9274 80.9756 123.326 80.9756 123.326C80.9756 123.326 72.726 148.887 86.3724 149.886C86.3724 149.886 95.3584 153.89 126.646 114.522C126.646 114.522 158.529 71.4368 146.417 58.7827Z" fill="var(--fill-0, white)"/>
<path id="Vector_4" opacity="0.3" d="M69.9732 75.7992C68.563 62.2719 33.7805 35.3049 33.7805 35.3049C33.4466 35.0506 33.1435 34.8093 32.8229 34.5549C29.1942 34.9496 -37.5067 42.6871 30.2617 68.4654C30.2617 68.4654 55.8854 78.5888 69.7668 87.9318C69.7668 87.9318 69.7843 87.9406 69.8194 87.9581C71.603 80.1328 69.9732 75.7992 69.9732 75.7992Z" fill="var(--fill-0, white)"/>
<path id="Vector_5" opacity="0.9" d="M146.131 58.1144C142.103 53.789 115.97 29.9184 33.1344 34.3054C33.1344 34.3054 33.073 34.3142 32.9718 34.3231C33.2973 34.5749 33.6006 34.8179 33.9349 35.0741C33.9349 35.0741 68.7524 62.2363 70.164 75.8617C70.164 75.8617 71.7953 80.2224 70.0144 88.1087C71.0478 88.6654 86.8559 97.6075 81.4649 123.299C81.4649 123.299 154.477 83.9114 146.14 58.11" fill="var(--fill-0, white)"/>
</g>
<defs>
<clipPath id="clip0_0_4">
<rect width="149.369" height="150" fill="white"/>
</clipPath>
</defs>
</svg>
