<svg preserveAspectRatio="none" width="100%" height="100%" overflow="visible" style="display: block;" viewBox="0 0 122 62" fill="none" xmlns="http://www.w3.org/2000/svg">
<g id="avanz-logo.svg" clip-path="url(#clip0_0_85)">
<path id="Vector" d="M121.076 16.239C120.983 15.9541 120.859 15.6728 120.689 15.4001C120.689 15.4001 116.791 6.66829 92.147 0.528896C91.778 0.436355 84.6184 -1.04553 83.3036 1.40073C83.3036 1.40073 81.605 3.489 89.6298 9.68197C89.6579 9.67954 89.675 9.6771 89.675 9.6771C112.695 8.46798 119.957 15.0469 121.076 16.239Z" fill="var(--fill-0, #FF7500)"/>
<path id="Vector_2" d="M99.9226 24.5059C99.6696 25.6151 99.1698 26.9777 98.235 28.5619C98.235 28.5619 93.7748 35.8665 98.8643 35.4318C98.8643 35.4318 101.886 35.0665 103.105 34.2044C104.604 27.1238 100.21 24.6593 99.9226 24.5059Z" fill="var(--fill-0, #FF7500)"/>
<path id="Vector_3" d="M121.238 16.4231C121.238 16.4231 121.186 16.3574 121.075 16.2393C123.393 23.3503 103.102 34.2045 103.102 34.2045C103.102 34.2045 100.816 41.2461 104.598 41.5213C104.598 41.5213 107.088 42.6245 115.759 31.7789C115.759 31.7789 124.595 19.9093 121.238 16.4231Z" fill="var(--fill-0, #FFA300)"/>
<path id="Vector_4" d="M99.9638 21.1317C99.5715 17.3765 89.8959 9.89035 89.8959 9.89035C89.803 9.81972 89.7187 9.75275 89.6295 9.68213C88.6201 9.79172 70.0656 11.9397 88.9171 19.0958C88.9171 19.0958 96.0449 21.9061 99.9063 24.4997C99.9063 24.4997 99.9112 24.5022 99.921 24.507C100.417 22.3347 99.9638 21.1317 99.9638 21.1317Z" fill="var(--fill-0, #FFA300)"/>
<path id="Vector_5" d="M121.076 16.2389C119.957 15.0468 112.695 8.46783 89.6751 9.67695C89.6751 9.67695 89.658 9.67939 89.6299 9.68182C89.7203 9.75123 89.8046 9.8182 89.8975 9.88882C89.8975 9.88882 99.5731 17.3749 99.9654 21.1302C99.9654 21.1302 100.419 22.332 99.9238 24.5055C100.211 24.6589 104.604 27.1234 103.106 34.2041C103.106 34.2041 123.396 23.3487 121.079 16.2377" fill="var(--fill-0, #E01837)"/>
<path id="Vector_6" d="M11.0223 33.6138H13.7375L2.70058 61.2289H0L11.0223 33.6138Z" fill="var(--fill-0, #7C7F83)"/>
<path id="Vector_7" d="M14.6185 34.394L13.1436 37.7499L22.7984 61.1994H25.5381L14.6185 34.394Z" fill="var(--fill-0, #7C7F83)"/>
<path id="Vector_8" d="M7.70249 51.6287L6.90332 53.6488H18.6783L17.7569 51.5483L7.70249 51.6287Z" fill="var(--fill-0, #7C7F83)"/>
<path id="Vector_9" d="M22.5406 41.4395L30.9551 61.2238H33.2207L24.8929 41.3457H22.4941L22.5406 41.4395Z" fill="var(--fill-0, #7C7F83)"/>
<path id="Vector_10" d="M32.7158 57.2873L33.807 59.9332L41.899 41.2886H39.3634L32.7158 57.2873Z" fill="var(--fill-0, #7C7F83)"/>
<path id="Vector_11" d="M44.9604 45.6467C44.9604 45.6467 48.8878 40.921 54.2829 43.4025C54.2829 43.4025 56.359 44.3681 56.4042 47.2174V61.2143H58.5463V47.0798C58.5463 47.0798 58.8445 43.422 55.5501 41.6662C55.5501 41.6662 49.1567 38.3943 43.626 44.0235L44.9604 45.6467Z" fill="var(--fill-0, #7C7F83)"/>
<path id="Vector_12" d="M55.3901 49.3763V51.8104C55.3901 51.8104 49.736 47.864 45.7376 52.3194C45.7376 52.3194 43.5063 54.8935 45.7376 57.923C45.7376 57.923 49.9339 62.1677 55.3363 57.7708V60.1245C55.3363 60.1245 53.7746 61.7379 49.808 61.7842C49.808 61.7842 45.382 61.8755 43.3523 58.1531C43.3523 58.1531 41.6917 55.4877 43.3523 51.7885C43.3523 51.7885 45.9344 45.7915 55.3901 49.3763Z" fill="var(--fill-0, #7C7F83)"/>
<path id="Vector_13" d="M65.2491 41.2812H63.0605V61.1971H65.2491V41.2812Z" fill="var(--fill-0, #7C7F83)"/>
<path id="Vector_14" d="M66.2744 42.5291V45.0338C66.2744 45.0338 69.3135 42.7458 72.7741 43.144C72.7741 43.144 76.4205 43.4484 76.3276 46.5729V61.1774H78.7105V46.2977C78.7105 46.2977 78.9378 41.2347 72.8817 40.7781C72.8817 40.7781 69.041 40.4152 66.2744 42.5291Z" fill="var(--fill-0, #7C7F83)"/>
<path id="Vector_15" d="M82.9688 58.2687L85.5985 58.2918L95.9291 44.29H93.1527L82.9688 58.2687Z" fill="var(--fill-0, #7C7F83)"/>
<path id="Vector_16" d="M97.0241 59.2573H82.1855V61.1983H97.0241V59.2573Z" fill="var(--fill-0, #7C7F83)"/>
<path id="Vector_17" d="M97.0241 41.0586H82.1855V42.9995H97.0241V41.0586Z" fill="var(--fill-0, #7C7F83)"/>
</g>
<defs>
<clipPath id="clip0_0_85">
<rect width="122" height="62" fill="white"/>
</clipPath>
</defs>
</svg>
