<svg preserveAspectRatio="none" width="100%" height="100%" overflow="visible" style="display: block;" viewBox="0 0 720.617 725" fill="none" xmlns="http://www.w3.org/2000/svg">
<g id="Group 1" style="mix-blend-mode:lighten">
<path id="Vector" d="M705.427 280.89C703.811 275.962 701.642 271.096 698.686 266.378C698.686 266.378 630.853 115.343 202.016 9.14844C195.594 7.54773 71.0062 -18.0847 48.1258 24.2288C48.1258 24.2288 18.5685 60.3501 158.211 167.471C158.7 167.429 158.998 167.387 158.998 167.387C559.575 146.473 685.949 260.27 705.427 280.89Z" fill="url(#paint0_linear_0_7)" fill-opacity="0.5"/>
<path id="Vector_2" d="M337.567 425.131C333.175 444.752 324.496 468.852 308.262 496.872C308.262 496.872 230.808 626.076 319.191 618.387C319.191 618.387 371.668 611.926 392.825 596.677C418.862 471.437 342.554 427.845 337.567 425.131Z" fill="url(#paint1_linear_0_7)" fill-opacity="0.5"/>
<path id="Vector_3" d="M707.352 284.116C707.352 284.116 706.436 282.962 704.498 280.89C744.906 405.649 391.2 596.078 391.2 596.078C391.2 596.078 351.346 719.619 417.273 724.447C417.273 724.447 460.685 743.802 611.838 553.523C611.838 553.523 765.867 345.278 707.352 284.116Z" fill="url(#paint2_linear_0_7)" fill-opacity="0.5"/>
<path id="Vector_4" d="M338.047 366.363C331.234 300.981 163.196 170.641 163.196 170.641C161.583 169.411 160.119 168.245 158.57 167.016C141.04 168.924 -181.199 206.321 146.197 330.916C146.197 330.916 269.987 379.847 337.049 425.004C337.049 425.004 337.134 425.046 337.304 425.131C345.92 387.309 338.047 366.363 338.047 366.363Z" fill="url(#paint3_linear_0_7)" fill-opacity="0.5"/>
<path id="Vector_5" d="M705.973 280.886C686.514 259.98 560.263 144.605 160.076 165.809C160.076 165.809 159.779 165.852 159.29 165.895C160.862 167.112 162.328 168.286 163.942 169.525C163.942 169.525 332.149 300.809 338.968 366.665C338.968 366.665 346.85 387.741 338.246 425.858C343.238 428.549 419.609 471.769 393.564 595.942C393.564 595.942 746.293 405.572 706.015 280.865" fill="url(#paint4_linear_0_7)" fill-opacity="0.5"/>
</g>
<defs>
<linearGradient id="paint0_linear_0_7" x1="375.469" y1="1.73027e-07" x2="375.469" y2="280.89" gradientUnits="userSpaceOnUse">
<stop stop-color="white"/>
<stop offset="1" stop-color="white" stop-opacity="0"/>
</linearGradient>
<linearGradient id="paint1_linear_0_7" x1="337.543" y1="425.131" x2="337.543" y2="618.717" gradientUnits="userSpaceOnUse">
<stop stop-color="white"/>
<stop offset="1" stop-color="white" stop-opacity="0"/>
</linearGradient>
<linearGradient id="paint2_linear_0_7" x1="549.93" y1="280.89" x2="549.93" y2="725" gradientUnits="userSpaceOnUse">
<stop stop-color="white"/>
<stop offset="1" stop-color="white" stop-opacity="0"/>
</linearGradient>
<linearGradient id="paint3_linear_0_7" x1="170.668" y1="167.016" x2="170.668" y2="425.131" gradientUnits="userSpaceOnUse">
<stop stop-color="white"/>
<stop offset="1" stop-color="white" stop-opacity="0"/>
</linearGradient>
<linearGradient id="paint4_linear_0_7" x1="434.255" y1="163.22" x2="434.255" y2="595.942" gradientUnits="userSpaceOnUse">
<stop stop-color="white"/>
<stop offset="1" stop-color="white" stop-opacity="0"/>
</linearGradient>
</defs>
</svg>
