<svg preserveAspectRatio="none" width="100%" height="100%" overflow="visible" style="display: block;" viewBox="0 0 378.02 379.617" fill="none" xmlns="http://www.w3.org/2000/svg">
<g id="avanz-logo-whitebn-1.svg" clip-path="url(#clip0_0_4)">
<path id="Vector" opacity="0.6" d="M369.541 147.077C368.694 144.496 367.557 141.949 366.009 139.478C366.009 139.478 330.475 60.3948 105.826 4.79022C102.463 3.95207 37.1969 -9.46935 25.211 12.6865C25.211 12.6865 9.7272 31.5999 82.8796 87.6895C83.1356 87.6676 83.2916 87.6458 83.2916 87.6458C293.135 76.6944 359.337 136.28 369.541 147.077Z" fill="var(--fill-0, white)"/>
<path id="Vector_2" opacity="0.6" d="M176.836 222.603C174.534 232.876 169.988 245.495 161.484 260.167C161.484 260.167 120.909 327.819 167.209 323.793C167.209 323.793 194.699 320.41 205.783 312.426C219.422 246.849 179.448 224.024 176.836 222.603Z" fill="var(--fill-0, white)"/>
<path id="Vector_3" opacity="0.3" d="M370.549 148.766C370.549 148.766 370.069 148.162 369.053 147.077C390.222 212.402 204.932 312.112 204.932 312.112C204.932 312.112 184.054 376.8 218.59 379.328C218.59 379.328 241.331 389.462 320.514 289.83C320.514 289.83 401.202 180.791 370.549 148.766Z" fill="var(--fill-0, white)"/>
<path id="Vector_4" opacity="0.3" d="M177.087 191.831C173.518 157.597 85.4911 89.349 85.4911 89.349C84.6461 88.7053 83.8789 88.0946 83.0675 87.4509C73.8843 88.4498 -94.9214 108.032 76.5858 173.271C76.5858 173.271 141.434 198.891 176.565 222.536C176.565 222.536 176.609 222.558 176.698 222.603C181.212 202.799 177.087 191.831 177.087 191.831Z" fill="var(--fill-0, white)"/>
<path id="Vector_5" opacity="0.9" d="M369.826 147.075C359.632 136.128 293.496 75.7169 83.856 86.8195C83.856 86.8195 83.7005 86.8418 83.4445 86.8642C84.2681 87.5015 85.0359 88.1165 85.8819 88.765C85.8819 88.765 173.997 157.507 177.57 191.989C177.57 191.989 181.698 203.026 177.191 222.984C179.807 224.393 219.813 247.023 206.17 312.042C206.17 312.042 390.948 212.362 369.848 147.064" fill="var(--fill-0, white)"/>
</g>
<defs>
<clipPath id="clip0_0_4">
<rect width="378.02" height="379.617" fill="white"/>
</clipPath>
</defs>
</svg>
