<svg preserveAspectRatio="none" width="100%" height="100%" overflow="visible" style="display: block;" viewBox="0 0 17 16" fill="none" xmlns="http://www.w3.org/2000/svg">
<g id="Component 5">
<path id="Vector" d="M5.75 14.6406L12.6562 7.75C12.6979 7.69792 12.7318 7.64323 12.7578 7.58594C12.7839 7.52865 12.7969 7.46875 12.7969 7.40625C12.7969 7.34375 12.7839 7.28385 12.7578 7.22656C12.7318 7.16927 12.6979 7.11458 12.6562 7.0625L5.75 0.171875C5.69792 0.119792 5.64323 0.0807292 5.58594 0.0546875C5.52865 0.0286458 5.46875 0.015625 5.40625 0.015625C5.34375 0.015625 5.28385 0.0286458 5.22656 0.0546875C5.16927 0.0807292 5.11979 0.119792 5.07812 0.171875L4.32812 0.90625C4.27604 0.958333 4.23958 1.01302 4.21875 1.07031C4.19792 1.1276 4.1875 1.1875 4.1875 1.25C4.1875 1.3125 4.19792 1.3724 4.21875 1.42969C4.23958 1.48698 4.27604 1.54167 4.32812 1.59375L10.1406 7.40625L4.32812 13.2188C4.27604 13.2708 4.23958 13.3255 4.21875 13.3828C4.19792 13.4401 4.1875 13.5 4.1875 13.5625C4.1875 13.625 4.19792 13.6849 4.21875 13.7422C4.23958 13.7995 4.27604 13.8542 4.32812 13.9062L5.07812 14.6406C5.11979 14.6927 5.16927 14.7318 5.22656 14.7578C5.28385 14.7839 5.34375 14.7969 5.40625 14.7969C5.46875 14.7969 5.52865 14.7839 5.58594 14.7578C5.64323 14.7318 5.69792 14.6927 5.75 14.6406Z" fill="var(--fill-0, #005F86)"/>
</g>
</svg>
