<svg preserveAspectRatio="none" width="100%" height="100%" overflow="visible" style="display: block;" viewBox="0 0 25 25" fill="none" xmlns="http://www.w3.org/2000/svg">
<g id="Icon">
<path id="Vector" d="M19.0918 3.97949H10.083C9.52962 3.97949 9.05762 4.1748 8.66699 4.56543C8.27637 4.95605 8.08105 5.41992 8.08105 5.95703V9.96094H10.083V5.95703H19.0918V19.9707H10.083V15.9668H8.08105V19.9707C8.08105 20.5241 8.27637 20.9961 8.66699 21.3867C9.05762 21.7773 9.52962 21.9727 10.083 21.9727H19.0918C19.6452 21.9727 20.1172 21.7773 20.5078 21.3867C20.8984 20.9961 21.0938 20.5241 21.0938 19.9707V5.95703C21.0938 5.41992 20.8984 4.95605 20.5078 4.56543C20.1172 4.1748 19.6452 3.97949 19.0918 3.97949ZM12.085 8.95996V11.9629H3.10059V13.9648H12.085V16.9678L17.0898 12.9639L12.085 8.95996Z" fill="var(--fill-0, white)"/>
</g>
</svg>
