<svg preserveAspectRatio="none" width="100%" height="100%" overflow="visible" style="display: block;" viewBox="0 0 171.665 48.3296" fill="none" xmlns="http://www.w3.org/2000/svg">
<g id="Group">
<path id="Vector" d="M79.0272 13.4289C79.3694 14.5352 79.5537 15.6942 79.5575 16.9041C79.5932 28.3626 63.7656 39.7947 44.2034 42.4369C24.6394 45.0791 8.74974 37.9327 8.71025 26.4742C8.67265 15.0157 24.5021 3.58367 44.0643 0.93956C49.3182 0.230945 54.3051 0.22906 58.7937 0.822714C53.1825 -0.170478 46.7796 -0.296748 39.9856 0.62106C17.8604 3.62136 -0.0450453 16.5913 8.51258e-05 29.5932C0.0414547 42.5952 18.0128 50.7047 40.1417 47.7063C62.2669 44.706 80.1705 31.7342 80.1272 18.7341C80.1216 16.857 79.7418 15.0817 79.0272 13.4289Z" fill="var(--fill-0, #2469AA)"/>
<path id="Vector_2" d="M63.9102 15.6301C64.0474 16.073 64.1245 16.5385 64.1245 17.0247C64.1377 21.6232 57.7818 26.2141 49.9272 27.277C42.0746 28.338 35.6942 25.4697 35.6792 20.8693C35.6642 16.269 42.0181 11.6762 49.8765 10.617C51.9844 10.3305 53.9871 10.3305 55.7886 10.5718C53.5377 10.1722 50.9652 10.1195 48.2367 10.4888C39.3517 11.695 32.1647 16.9022 32.1797 22.1226C32.1985 27.343 39.4137 30.5977 48.2969 29.3953C57.182 28.1892 64.3709 22.982 64.3521 17.7616C64.3502 17.0096 64.1979 16.2953 63.9102 15.632" fill="var(--fill-0, #DBDCDD)"/>
<path id="Vector_3" d="M24.6962 26.3556C24.4668 25.613 24.3445 24.8347 24.3426 24.0224C24.3163 16.3294 34.9464 8.65527 48.0812 6.87996C61.2161 5.10277 71.8857 9.901 71.9101 17.5959C71.9364 25.2908 61.3063 32.9668 48.1715 34.7402C44.6457 35.217 41.2966 35.2189 38.2823 34.8194C42.0507 35.4865 46.3494 35.5713 50.9113 34.9551C65.7667 32.9423 77.7902 24.2297 77.7601 15.5021C77.73 6.77254 65.6652 1.32789 50.8079 3.33877C35.9524 5.35154 23.929 14.0622 23.959 22.7918C23.9628 24.0507 24.2204 25.2436 24.6962 26.3556Z" fill="var(--fill-0, #9EA0A2)"/>
<path id="Vector_4" d="M54.6798 18.8755C54.6855 20.3587 52.6358 21.8381 50.1066 22.1811C47.5737 22.5222 45.5183 21.5969 45.5127 20.1118C45.5089 18.6305 47.5567 17.1511 50.0878 16.8099C52.6189 16.4669 54.6779 17.3923 54.6798 18.8755Z" fill="var(--fill-0, #2469AA)"/>
<path id="Vector_5" d="M97.4444 19.339C97.1416 19.4238 96.8314 19.4935 96.5192 19.5482C96.1751 19.6066 95.7953 19.6386 95.3891 19.6386C94.7084 19.6386 94.0878 19.5312 93.5463 19.3239C93.0085 19.1222 92.5383 18.8169 92.1472 18.4117C91.758 18.0122 91.4571 17.5147 91.2503 16.9342C91.0378 16.3462 90.9362 15.6866 90.9362 14.9252C90.9362 14.1261 91.0603 13.4156 91.3029 12.8126C91.5436 12.2114 91.8764 11.7063 92.2958 11.3067C92.7132 10.911 93.2021 10.6113 93.7512 10.4097C94.3022 10.2061 94.8908 10.1062 95.5057 10.1062C96.0604 10.1062 96.602 10.159 97.1172 10.2608C97.6343 10.3607 98.1533 10.5152 98.6592 10.7074L98.787 10.7564L99.2101 8.98869L99.1011 8.95288C98.5557 8.77761 97.9916 8.64192 97.4331 8.55334C96.8577 8.461 96.2578 8.41577 95.6523 8.41577C94.6237 8.41577 93.6798 8.5835 92.843 8.91708C92.0099 9.25442 91.2935 9.72369 90.7106 10.3192C90.1295 10.9147 89.6782 11.6347 89.3698 12.4507C89.0614 13.2667 88.9072 14.1676 88.9072 15.1287C88.9072 16.0974 89.0539 16.9757 89.3435 17.7371C89.6331 18.5079 90.0599 19.1694 90.6053 19.7046C91.1468 20.2379 91.8087 20.6526 92.5741 20.9315C93.3319 21.2085 94.1988 21.3517 95.1465 21.3517C95.8235 21.3517 96.5324 21.2877 97.2488 21.1652C97.9672 21.0389 98.6441 20.8561 99.2609 20.6243L99.3399 20.5941V14.6444H97.4444V19.339Z" fill="var(--fill-0, #9EA0A2)"/>
<path id="Vector_6" d="M113.106 15.9184C112.967 15.7544 112.835 15.5886 112.709 15.4265C113.129 15.3775 113.531 15.2795 113.905 15.1288C114.351 14.9573 114.75 14.7179 115.094 14.4107C115.434 14.1092 115.707 13.7398 115.906 13.3101C116.111 12.8766 116.209 12.3979 116.209 11.8514C116.209 11.2502 116.1 10.7282 115.885 10.3041C115.669 9.88012 115.366 9.52958 114.979 9.26762C114.603 9.00378 114.142 8.80778 113.614 8.68716C113.097 8.56655 112.525 8.51001 111.906 8.51001C111.162 8.51001 110.609 8.51566 110.171 8.52885C109.727 8.54016 109.287 8.55901 108.817 8.58351L108.704 8.59293V21.1784H110.618V15.6319H110.656L114.695 21.1784H117.132L113.629 16.5724C113.471 16.3632 113.298 16.1427 113.108 15.9184M110.622 10.1553C110.756 10.1458 110.893 10.1402 111.034 10.1326C111.214 10.127 111.41 10.1232 111.617 10.1232C112.488 10.1232 113.151 10.2759 113.586 10.5755C114.011 10.8733 114.219 11.3633 114.219 12.0719C114.219 12.6919 113.988 13.2008 113.531 13.5796C113.069 13.9697 112.397 14.1657 111.542 14.1657C111.299 14.1657 111.09 14.1638 110.915 14.1544C110.791 14.1506 110.695 14.145 110.62 14.1393V10.1534L110.622 10.1553Z" fill="var(--fill-0, #9EA0A2)"/>
<path id="Vector_7" d="M135.137 16.3387V8.58545H133.26V16.4801C133.26 17.6862 133.008 18.5437 132.519 19.03C132.021 19.5087 131.248 19.7555 130.216 19.7555C129.614 19.7555 129.116 19.6764 128.734 19.5256C128.356 19.373 128.059 19.1619 127.85 18.8999C127.636 18.6361 127.489 18.3195 127.407 17.967C127.324 17.6014 127.282 17.2057 127.282 16.7929V8.58545H125.368V16.906C125.368 17.4638 125.43 18.0123 125.552 18.5362C125.682 19.079 125.914 19.552 126.263 19.9779C126.611 20.402 127.096 20.745 127.715 20.9956C128.328 21.2406 129.135 21.3669 130.105 21.3669C131.748 21.3669 133.012 20.9428 133.858 20.1061C134.708 19.2674 135.137 18.001 135.137 16.3387Z" fill="var(--fill-0, #9EA0A2)"/>
<path id="Vector_8" d="M146.794 16.4688C146.92 16.482 147.044 16.4876 147.165 16.4876H147.657C148.362 16.4876 149.022 16.3821 149.62 16.1804C150.22 15.9731 150.743 15.6772 151.17 15.306C151.602 14.9272 151.943 14.4767 152.185 13.9698C152.43 13.4572 152.554 12.8805 152.554 12.2529C152.554 11.1108 152.159 10.1892 151.382 9.51834C150.608 8.84931 149.479 8.51196 148.031 8.51196C147.405 8.51196 146.898 8.51761 146.441 8.53081C145.982 8.54211 145.508 8.55907 144.995 8.58546L144.878 8.59111V21.1784H146.792V16.4669L146.794 16.4688ZM146.794 10.1365C146.914 10.1271 147.05 10.1233 147.204 10.1233H147.845C148.785 10.1233 149.483 10.3249 149.916 10.7207C150.346 11.1108 150.564 11.6837 150.564 12.4169C150.564 13.1726 150.311 13.7512 149.792 14.1941C149.271 14.6388 148.56 14.8631 147.684 14.8725C147.522 14.8725 147.349 14.8706 147.174 14.8574C147.044 14.8461 146.918 14.8329 146.794 14.8197V10.1365Z" fill="var(--fill-0, #9EA0A2)"/>
<path id="Vector_9" d="M168.011 20.9203C168.731 20.6188 169.369 20.1816 169.907 19.6162C170.446 19.0451 170.879 18.3478 171.191 17.5356C171.505 16.7195 171.665 15.7791 171.665 14.7407C171.665 13.723 171.529 12.8089 171.266 12.0193C170.999 11.2296 170.616 10.5568 170.129 10.0254C169.638 9.49204 169.04 9.07931 168.352 8.80415C167.663 8.53088 166.889 8.39331 166.05 8.39331C165.234 8.39331 164.457 8.54219 163.731 8.84185C163.013 9.13773 162.372 9.57496 161.828 10.146C161.291 10.7114 160.862 11.4106 160.553 12.2266C160.245 13.0389 160.091 13.9774 160.091 15.0139C160.091 15.9676 160.207 16.8382 160.433 17.6072C160.662 18.3836 161.014 19.0583 161.479 19.6086C161.943 20.1665 162.535 20.6018 163.237 20.909C163.94 21.2106 164.769 21.367 165.704 21.367C166.518 21.367 167.295 21.2143 168.011 20.9203ZM165.869 10.1252C167.065 10.1252 168 10.5361 168.647 11.354C169.303 12.1776 169.638 13.3894 169.638 14.9536C169.638 15.7282 169.529 16.4161 169.312 17.0022C169.1 17.5846 168.814 18.0783 168.463 18.4684C168.107 18.8586 167.699 19.1563 167.252 19.3467C166.804 19.5408 166.332 19.6407 165.851 19.6407C165.217 19.6407 164.66 19.5238 164.198 19.2958C163.737 19.0659 163.351 18.7379 163.049 18.3158C162.737 17.8804 162.503 17.3641 162.355 16.7779C162.201 16.1805 162.122 15.5115 162.122 14.7934C162.122 14.0264 162.227 13.3479 162.432 12.7712C162.639 12.1964 162.917 11.7064 163.259 11.3144C163.598 10.9243 164 10.6303 164.452 10.4324C164.897 10.2289 165.373 10.129 165.871 10.129" fill="var(--fill-0, #9EA0A2)"/>
<path id="Vector_10" d="M96.2878 28.1061C95.5149 27.4371 94.3867 27.0979 92.9387 27.0979C92.2956 27.0979 91.7879 27.1035 91.3479 27.1167C90.8176 27.128 90.3437 27.145 89.8999 27.1733L89.7871 27.1789V39.7644H91.7033V35.0528C91.8387 35.066 91.9609 35.0717 92.0737 35.0717H92.5664C93.2753 35.0717 93.9335 34.968 94.5277 34.7645C95.1238 34.561 95.6447 34.2651 96.0753 33.89C96.5097 33.5112 96.8519 33.0608 97.0926 32.5538C97.3389 32.0393 97.4612 31.4626 97.4612 30.8388C97.4612 29.6949 97.0663 28.7733 96.2859 28.1043M91.7014 28.7205C91.8349 28.7149 91.9703 28.7092 92.1094 28.7092H92.7488C93.6928 28.7092 94.3904 28.9109 94.821 29.3048C95.2516 29.6968 95.4698 30.2678 95.4698 31.0009C95.4698 31.7566 95.2159 32.3371 94.6988 32.7781C94.1742 33.221 93.4652 33.4471 92.5852 33.4585C92.4178 33.4585 92.2486 33.4547 92.0812 33.4396C91.9571 33.434 91.8293 33.4208 91.7014 33.4038V28.7224V28.7205Z" fill="var(--fill-0, #9EA0A2)"/>
<path id="Vector_11" d="M105.189 39.7646H111.762V38.1099H107.106V34.0863H111.543V32.4693H107.106V28.7886H111.762V27.1716H105.189V39.7646Z" fill="var(--fill-0, #9EA0A2)"/>
<path id="Vector_12" d="M122.091 27.1716H120.175V39.7665H126.506V38.0722H122.091V27.1716Z" fill="var(--fill-0, #9EA0A2)"/>
<path id="Vector_13" d="M135.707 27.1716H133.791V39.7665H140.124V38.0722H135.707V27.1716Z" fill="var(--fill-0, #9EA0A2)"/>
<path id="Vector_14" d="M150.621 27.1716L146.038 39.7646H148.028L149.051 36.868H154.098L155.117 39.7646H157.261L152.652 27.1716H150.621ZM151.426 30.0306C151.474 29.876 151.52 29.7196 151.563 29.567C151.608 29.7196 151.655 29.876 151.702 30.0287C151.787 30.3038 151.886 30.5978 151.995 30.9013L153.577 35.2868H149.571L151.155 30.8824C151.251 30.5884 151.341 30.3057 151.426 30.0306Z" fill="var(--fill-0, #9EA0A2)"/>
<path id="Vector_15" d="M169.948 33.3398C169.527 33.0665 169.058 32.8366 168.562 32.6576C168.082 32.4842 167.627 32.2995 167.214 32.1035C166.811 31.9132 166.473 31.6813 166.206 31.4156C165.948 31.1631 165.82 30.8314 165.82 30.4281C165.82 29.8683 166.008 29.4387 166.39 29.1088C166.772 28.7809 167.377 28.617 168.184 28.617C168.539 28.617 168.895 28.6433 169.243 28.7018C169.624 28.7658 169.961 28.8393 170.269 28.9317L170.405 28.9732L170.645 27.2337L170.536 27.2092C170.185 27.1357 169.814 27.0829 169.406 27.049C168.229 26.9491 167.219 26.9981 166.399 27.2619C165.854 27.4353 165.384 27.686 165.004 28.0101C164.628 28.3324 164.34 28.7187 164.141 29.1616C163.947 29.6007 163.848 30.0945 163.848 30.626C163.848 31.3025 163.992 31.8604 164.278 32.2844C164.564 32.7028 164.921 33.0496 165.348 33.3172C165.769 33.581 166.228 33.8053 166.713 33.9749C167.172 34.1351 167.622 34.3236 168.043 34.5271C168.451 34.7269 168.776 34.9493 169.043 35.2169C169.293 35.4732 169.421 35.8162 169.421 36.2383C169.421 36.5964 169.352 36.9055 169.216 37.1524C169.081 37.4012 168.898 37.6066 168.671 37.7611C168.44 37.9157 168.167 38.0344 167.859 38.1098C167.142 38.2869 166.296 38.2455 165.544 38.0985C165.1 38.0118 164.703 37.893 164.325 37.7366L164.179 37.6744L163.949 39.5364L164.049 39.5666C164.444 39.6797 164.872 39.772 165.326 39.8361C165.773 39.9002 166.264 39.9322 166.785 39.9322C167.505 39.9322 168.133 39.838 168.701 39.642C169.269 39.4516 169.767 39.1802 170.175 38.8353C170.583 38.4867 170.903 38.0702 171.129 37.5934C171.354 37.1128 171.469 36.5832 171.469 36.0197C171.469 35.3488 171.319 34.7947 171.023 34.3763C170.734 33.9598 170.371 33.6112 169.948 33.3398Z" fill="var(--fill-0, #9EA0A2)"/>
</g>
</svg>
