<svg preserveAspectRatio="none" width="100%" height="100%" overflow="visible" style="display: block;" viewBox="0 0 174 174" fill="none" xmlns="http://www.w3.org/2000/svg">
<g id="Component 2">
<path id="Vector" opacity="0.6" d="M169.747 67.4137C169.359 66.2308 168.838 65.0631 168.129 63.9307C168.129 63.9307 151.841 27.6824 48.8723 2.19563C47.3304 1.81146 17.4155 -4.34033 11.9217 5.81492C11.9217 5.81492 4.82458 14.484 38.3544 40.193C38.4718 40.183 38.5433 40.173 38.5433 40.173C134.727 35.1534 165.07 62.4648 169.747 67.4137Z" fill="var(--fill-0, white)"/>
<path id="Vector_2" opacity="0.6" d="M81.4198 102.031C80.3651 106.74 78.2812 112.524 74.3834 119.249C74.3834 119.249 55.7857 150.258 77.0073 148.413C77.0073 148.413 89.6078 146.862 94.688 143.202C100.94 113.145 82.6173 102.683 81.4198 102.031Z" fill="var(--fill-0, white)"/>
<path id="Vector_3" opacity="0.3" d="M170.21 68.188C170.21 68.188 169.99 67.911 169.524 67.4137C179.227 97.3558 94.2978 143.059 94.2978 143.059C94.2978 143.059 84.7282 172.709 100.558 173.867C100.558 173.867 110.982 178.513 147.276 132.845C147.276 132.845 184.259 82.8667 170.21 68.188Z" fill="var(--fill-0, white)"/>
<path id="Vector_4" opacity="0.3" d="M81.535 87.9271C79.8992 72.2354 39.5514 40.9537 39.5514 40.9537C39.1642 40.6587 38.8125 40.3787 38.4406 40.0837C34.2314 40.5415 -43.1417 49.517 35.4696 79.4199C35.4696 79.4199 65.1931 91.1631 81.2956 102.001C81.2956 102.001 81.3158 102.011 81.3566 102.031C83.4256 92.9541 81.535 87.9271 81.535 87.9271Z" fill="var(--fill-0, white)"/>
<path id="Vector_5" opacity="0.9" d="M169.878 67.4127C165.206 62.3952 134.892 34.7053 38.802 39.7943C38.802 39.7943 38.7307 39.8045 38.6134 39.8148C38.9909 40.1069 39.3428 40.3887 39.7306 40.686C39.7306 40.686 80.1188 72.1941 81.7563 87.9996C81.7563 87.9996 83.6486 93.058 81.5828 102.206C82.7815 102.852 101.119 113.225 94.8654 143.026C94.8654 143.026 179.56 97.3373 169.888 67.4076" fill="var(--fill-0, white)"/>
</g>
</svg>
