<svg preserveAspectRatio="none" width="100%" height="100%" overflow="visible" style="display: block;" viewBox="0 0 17 16" fill="none" xmlns="http://www.w3.org/2000/svg">
<g id="Component 5">
<path id="Vector" d="M8.5 0.625C7.45833 0.625 6.47396 0.822917 5.54688 1.21875C4.63021 1.61458 3.82812 2.15625 3.14062 2.84375C2.45312 3.53125 1.91146 4.33333 1.51562 5.25C1.11979 6.17708 0.921875 7.16146 0.921875 8.20312V8.35938C0.942708 9.40104 1.16146 10.375 1.57812 11.2812C1.98438 12.1875 2.53385 12.9766 3.22656 13.6484C3.91927 14.3203 4.72917 14.849 5.65625 15.2344C6.57292 15.6094 7.55208 15.7917 8.59375 15.7812C9.63542 15.7708 10.6146 15.5625 11.5312 15.1562C12.4375 14.75 13.2292 14.2005 13.9062 13.5078C14.5833 12.8151 15.1146 12.0104 15.5 11.0938C15.8958 10.1771 16.0885 9.19792 16.0781 8.15625C16.0677 7.11458 15.8646 6.13542 15.4688 5.21875C15.0729 4.30208 14.5312 3.50521 13.8438 2.82812C13.1562 2.15104 12.3542 1.61458 11.4375 1.21875C10.5208 0.822917 9.54167 0.625 8.5 0.625ZM8.5 14.2656C7.66667 14.2656 6.88021 14.1094 6.14062 13.7969C5.40104 13.474 4.75781 13.0391 4.21094 12.4922C3.66406 11.9453 3.23438 11.3021 2.92188 10.5625C2.59896 9.82292 2.4375 9.03646 2.4375 8.20312C2.4375 7.36979 2.59896 6.58333 2.92188 5.84375C3.23438 5.10417 3.66406 4.46094 4.21094 3.91406C4.75781 3.36719 5.40104 2.93229 6.14062 2.60938C6.88021 2.29688 7.66667 2.14062 8.5 2.14062C9.33333 2.14062 10.1198 2.29688 10.8594 2.60938C11.599 2.93229 12.2422 3.36719 12.7891 3.91406C13.3359 4.46094 13.7708 5.10417 14.0938 5.84375C14.4062 6.58333 14.5625 7.36979 14.5625 8.20312C14.5625 9.03646 14.4062 9.82292 14.0938 10.5625C13.7708 11.3021 13.3359 11.9453 12.7891 12.4922C12.2422 13.0391 11.599 13.4688 10.8594 13.7812C10.1198 14.1042 9.33333 14.2656 8.5 14.2656ZM7.40625 4.40625L6.32812 5.48438L9.01562 8.17188L6.32812 10.8438L7.40625 11.9219L11.1562 8.17188L7.40625 4.40625Z" fill="var(--fill-0, #005F86)"/>
</g>
</svg>
