<svg preserveAspectRatio="none" width="100%" height="100%" overflow="visible" style="display: block;" viewBox="0 0 21 21" fill="none" xmlns="http://www.w3.org/2000/svg">
<g id="Component 5">
<path id="Vector" d="M10.5 0.820312C9.13281 0.820312 7.84082 1.08008 6.62402 1.59961C5.4209 2.11914 4.36816 2.83008 3.46582 3.73242C2.56348 4.63477 1.85254 5.6875 1.33301 6.89062C0.813477 8.10742 0.553711 9.39941 0.553711 10.7666V10.9717C0.581055 12.3389 0.868164 13.6172 1.41504 14.8066C1.94824 15.9961 2.66943 17.0317 3.57861 17.9136C4.48779 18.7954 5.55078 19.4893 6.76758 19.9951C7.9707 20.4873 9.25586 20.7266 10.623 20.7129C11.9902 20.6992 13.2754 20.4258 14.4785 19.8926C15.668 19.3594 16.707 18.6382 17.5957 17.729C18.4844 16.8198 19.1816 15.7637 19.6875 14.5605C20.207 13.3574 20.46 12.0723 20.4463 10.7051C20.4326 9.33789 20.166 8.05273 19.6465 6.84961C19.127 5.64648 18.416 4.60059 17.5137 3.71191C16.6113 2.82324 15.5586 2.11914 14.3555 1.59961C13.1523 1.08008 11.8672 0.820312 10.5 0.820312ZM10.5 18.7236C9.40625 18.7236 8.37402 18.5186 7.40332 18.1084C6.43262 17.6846 5.58838 17.1138 4.87061 16.396C4.15283 15.6782 3.58887 14.834 3.17871 13.8633C2.75488 12.8926 2.54297 11.8604 2.54297 10.7666C2.54297 9.67285 2.75488 8.64062 3.17871 7.66992C3.58887 6.69922 4.15283 5.85498 4.87061 5.13721C5.58838 4.41943 6.43262 3.84863 7.40332 3.4248C8.37402 3.01465 9.40625 2.80957 10.5 2.80957C11.5937 2.80957 12.626 3.01465 13.5967 3.4248C14.5674 3.84863 15.4116 4.41943 16.1294 5.13721C16.8472 5.85498 17.418 6.69922 17.8418 7.66992C18.252 8.64062 18.457 9.67285 18.457 10.7666C18.457 11.8604 18.252 12.8926 17.8418 13.8633C17.418 14.834 16.8472 15.6782 16.1294 16.396C15.4116 17.1138 14.5674 17.6777 13.5967 18.0879C12.626 18.5117 11.5937 18.7236 10.5 18.7236ZM9.06445 5.7832L7.64941 7.19824L11.1768 10.7256L7.64941 14.2324L9.06445 15.6475L13.9863 10.7256L9.06445 5.7832Z" fill="var(--fill-0, #005F86)"/>
</g>
</svg>
